# xmcd
#
# Track frame offsets:
#  150
#  20400
#  36112
#  43499
#  60449
#  64424
#  83174
#  87186
#  114599
#  122249
#  141149
#  146587
#  166800
#  188812
#  207075
#
# Disc length: 3142 seconds
#
# Revision: 0
# Processed by: cddbd v1.5.1PL2 Copyright (c) Steve Scherf et al.
# Submitted via: Collectorz.com_Music_Collector 6.11
#
DISCID=d40c440f
DTITLE=Emily R. Skinner - Playtime
DYEAR=2002
DGENRE=Contemporary Christian
TTITLE0=Come to Me
TTITLE1=Walking in Autumn
TTITLE2=Song for Tiim
TTITLE3=To Know You Lord
TTITLE4=Love Beyond Imagination
TTITLE5=All I Ask
TTITLE6=Song for Dad
TTITLE7=People Sonrise Worship Team
TTITLE8=Hallelujah
TTITLE9=Center of My World
TTITLE10=Sam's Song
TTITLE11=looking Through Your Eyes
TTITLE12=Look to You
TTITLE13=It's all Gonna Be Okay
TTITLE14=Love Made Right
EXTD=
EXTT0=
EXTT1=
EXTT2=
EXTT3=
EXTT4=
EXTT5=
EXTT6=
EXTT7=
EXTT8=
EXTT9=
EXTT10=
EXTT11=
EXTT12=
EXTT13=
EXTT14=
PLAYORDER=
